<?xml version="1.0" encoding="utf-8"?>
<!-- Generator: Adobe Illustrator 24.1.1, SVG Export Plug-In . SVG Version: 6.00 Build 0)  -->
<svg version="1.1" id="Layer_1" xmlns="http://www.w3.org/2000/svg" xmlns:xlink="http://www.w3.org/1999/xlink" x="0px" y="0px"
	 viewBox="0 0 390 220" style="enable-background:new 0 0 390 220;" xml:space="preserve">
<style type="text/css">
	.st0{display:none;}
	.st1{display:inline;fill:#FFFFFF;}
	.st2{fill:url(#SVGID_1_);}
</style>
<g id="Layer_1_1_" class="st0">
	
		<image style="display:inline;overflow:visible;opacity:0.57;enable-background:new    ;" width="225" height="225" xlink:href="8E6B08D0.png"  transform="matrix(1 0 0 1 74.3723 -3.7766)">
	</image>
	<path class="st1" d="M205.4,221.2"/>
</g>
<g id="Layer_2_1_">
	<g>
		<g>
			<g>
				<g>
					<g>
						<g>
							
								<linearGradient id="SVGID_1_" gradientUnits="userSpaceOnUse" x1="109.6431" y1="112.9886" x2="265.6208" y2="112.9886" gradientTransform="matrix(1 0 0 -1 0 220)">
								<stop  offset="0" style="stop-color:#8BDD09"/>
								<stop  offset="0" style="stop-color:#6EA31E"/>
								<stop  offset="0" style="stop-color:#7AD815"/>
								<stop  offset="0.1149" style="stop-color:#518D3A"/>
								<stop  offset="0.246" style="stop-color:#448146"/>
								<stop  offset="0.3148" style="stop-color:#367654"/>
								<stop  offset="0.3571" style="stop-color:#286C61"/>
								<stop  offset="0.3942" style="stop-color:#175A73"/>
								<stop  offset="0.4524" style="stop-color:#0E527C"/>
								<stop  offset="0.4683" style="stop-color:#105877"/>
								<stop  offset="0.5529" style="stop-color:#1E626C"/>
								<stop  offset="0.6587" style="stop-color:#0E517D"/>
								<stop  offset="0.6905" style="stop-color:#383B8E"/>
								<stop  offset="0.754" style="stop-color:#5A2A98"/>
								<stop  offset="0.8228" style="stop-color:#831DAC"/>
								<stop  offset="0.8598" style="stop-color:#BA1DAC"/>
								<stop  offset="1" style="stop-color:#FF005E"/>
								<stop  offset="1" style="stop-color:#FFFFFF"/>
							</linearGradient>
							<path class="st2" d="M157,170.8c-16.5,0-45.2-11.5-46.8-14.6l-0.6-1.2l0.9-1.1c1-1.2,2.6-0.7,4.5-0.1
								c7.5,2.4,28.7-5.2,37.5-9.7c-10.4-0.8-20.7-12.1-24.3-18.7c-1-1.9-2-4.2-0.7-5.8c0.3-0.4,1.3-1.3,3.1-0.7
								c0.7,0.2,1.8,0.3,3.1,0.2c-7.8-3.1-13.4-11.4-16.4-19.6c-1.4-3.7-3.3-10.2-0.8-11.9c0.7-0.5,2-0.7,3.2,0.3
								c1.6,1.3,4.6,2.1,7.5,2.6c-5.7-4.7-9.1-10.2-10.3-16.5c-2.3-11.9,4.7-22,4.9-22.4l1.5-2.2l1.7,2.1
								c19.2,24,52.9,30.4,60.2,30.9c-0.1-0.4-0.2-0.8-0.3-1.2c-1.4-6.2-4.3-19,11.5-30.8c23.1-17.2,42.3,0.9,44.9,3.6
								c1.7,0.4,9.2-2.9,16.1-7.2l3.1-1.9v3.6c0,3.7-5.8,10.9-9.7,15.3c6.6-0.1,9.7-4.3,10.9-5.8c0.4-0.5,1.3-1.8,2.9-1.1
								c1,0.5,1.4,1.4,1.1,2.8c-0.7,3.3-10.4,12.4-15.2,16.7c-2.4,76.5-58.1,91.9-91.1,94.3C158.5,170.8,157.8,170.8,157,170.8z
								 M122.1,158.1c9.9,4.1,26.1,9.4,36.8,8.6c31.8-2.3,85.5-17.3,87.4-91.3l0-0.9L247,74c2.3-2.1,4.7-4.3,6.9-6.5
								c-2.4,0.4-5,0.4-7.7-0.2l-3.5-0.7l2.5-2.6c3.2-3.4,6.5-7.4,8.7-10.5c-5.6,3-12,5.7-14.8,3.9l-0.2-0.1l-0.2-0.2
								c-0.7-0.8-18.1-19.5-39.8-3.3c-13.7,10.2-11.3,20.9-10,26.7c0.6,2.5,1.2,5.4-1.5,6c-3.6,0.9-41.7-5.1-63.6-30.1
								c-1.7,3.4-4.3,9.9-2.9,17.1c1.2,6.4,5.4,12,12.4,16.6l7.7,5.1h-6.6c-1.1,0-9.5-0.1-14.8-2.6c0.7,3.8,3.2,11.5,8.2,17.4
								c4.1,4.7,8.7,6.9,13.6,6.5c7.3-0.7,8.4-0.4,9.1,1c0.4,0.8,0.3,1.7-0.3,2.4c-1.6,1.8-13,3.7-18.6,3.4
								c1.4,2.7,4.9,7.5,9.8,11.6c3.4,2.8,8.6,6.1,13.6,5.5c1.9-0.2,4-0.4,4.9,1.2c0.2,0.3,0.7,1.5-0.4,2.9
								C156.4,147.8,135.7,156.7,122.1,158.1z"/>
						</g>
					</g>
				</g>
			</g>
		</g>
	</g>
</g>
</svg>
